<svg xmlns="http://www.w3.org/2000/svg" viewBox="0 0 340.62 315.17"><defs><style>.cls-1{fill:#fcfcfc;}.cls-2{fill:#525480;}.cls-3{fill:#ee0f0f;}.cls-4{fill:#081998;}.cls-5{fill:#050b80;}.cls-6{fill:#575ffe;}.cls-7{fill:#8285cb;}.cls-8{fill:#a2a7fe;}.cls-9{fill:#00003a;}.cls-10{fill:#fefefe;}</style></defs><title>Ativo 4</title><g id="Camada_2" data-name="Camada 2"><g id="Camada_1-2" data-name="Camada 1"><path class="cls-1" d="M187.2,315.36q-92.93,0-185.86,0c-.87,0-1.12-.14-1.12-1.08q0-156.47,0-312.93C.21.36.45.22,1.39.22q169.12,0,338.25,0c.94,0,1.19.14,1.18,1.15q0,156.41,0,312.81c0,1.06-.27,1.21-1.24,1.21q-74.39,0-148.79,0c0-.61.55-.61.92-.77,3.2-1.36,4.51-3.31,4.51-6.75,0-2,0-4.08,0-6.12.09-4.36-4.13-6.81-7.59-6.57a7.24,7.24,0,0,0-3.74,1.17,6.49,6.49,0,0,0-3.06,5.17,46.34,46.34,0,0,0,.09,7.66,6.38,6.38,0,0,0,4,5.26C186.43,314.63,187.11,314.63,187.2,315.36Z" transform="translate(-0.21 -0.22)"/><path class="cls-2" d="M187.2,315.36c-.08-.08-.15-.19-.25-.23-4.09-1.53-5.47-3.5-5.47-7.81,0-1.64.05-3.28,0-4.91-.22-6.08,6-8.94,10.64-7a6.79,6.79,0,0,1,4.49,6.69q0,2.94,0,5.87a6.88,6.88,0,0,1-5.33,7.16c-.18.05-.41,0-.47.26Z" transform="translate(-0.21 -0.22)"/><path class="cls-3" d="M263.37,146.31c2.55-4.34,5-8.49,7.42-12.67a1.68,1.68,0,0,1,1.68-1q8.64.06,17.27,0c1,0,1.16.28,1.16,1.19q0,31.91,0,63.82c0,.9-.21,1.12-1.11,1.12q-8.88-.07-17.75,0c-.93,0-1.1-.28-1.09-1.14,0-10.12,0-20.23,0-30.35,0-.39,0-.78,0-1.55l-7.62,12.74-7.25-12.41-.21.07v1.14c0,10.08,0,20.15,0,30.23,0,1-.19,1.27-1.22,1.26-5.84-.06-11.68,0-17.51,0-.87,0-1.23-.11-1.23-1.14q.05-31.91,0-63.82c0-1,.33-1.16,1.22-1.16q8.58.05,17.15,0a1.57,1.57,0,0,1,1.59.93c2.2,3.84,4.46,7.66,6.69,11.48C262.81,145.44,263,145.8,263.37,146.31Z" transform="translate(-0.21 -0.22)"/><path class="cls-4" d="M132.38,117.41l4.3-4.11q5.14-4.95,10.27-9.91c.61-.6,1-.72,1.66,0q6.12,6.51,12.38,12.88c.59.6.47.89-.05,1.4q-16.87,16.19-33.72,32.4c-4.29,4.13-8.6,8.24-12.86,12.4-.57.56-.86.54-1.39,0q-4.66-4.91-9.4-9.76c-.52-.53-.27-.92-.1-1.39q3.36-8.83,6.73-17.66c.1-.26.19-.53.29-.79s.34-.57.09-.77-.54.17-.74.37c-4.07,3.9-8.16,7.78-12.18,11.73-.74.72-1,.65-1.72-.07q-6.13-6.5-12.38-12.88c-.53-.55-.48-.78,0-1.29q12.34-11.82,24.64-23.68,10.89-10.47,21.77-21c.59-.57.85-.38,1.3.09,2.83,3,5.67,6,8.55,8.9a1.34,1.34,0,0,1,.31,1.67q-3.91,10.35-7.77,20.72A.63.63,0,0,0,132.38,117.41Z" transform="translate(-0.21 -0.22)"/><path class="cls-4" d="M97.83,56.87a17.63,17.63,0,0,1,15.76,9.53c2.14,3.87,2.18,8.12,1.51,12.38-1.66,10.51-7.3,18.66-15.13,25.51-5.07,4.43-10.62,8.05-17.21,9.82-5.41,1.45-10.84,1.78-16-.75-6.61-3.22-10.14-8.55-10.31-16a29,29,0,0,1,3.86-15.49c5.82-10,13.58-18,24.51-22.49A34.1,34.1,0,0,1,97.83,56.87Z" transform="translate(-0.21 -0.22)"/><path class="cls-3" d="M300,165.69c0-10.6,0-21.19,0-31.79,0-1,.28-1.24,1.26-1.24q17.45.05,34.91,0c1,0,1.25.27,1.24,1.26q-.08,7.14,0,14.27c0,.92-.25,1.12-1.13,1.11-5.08,0-10.16,0-15.23,0-.91,0-1.15.23-1.12,1.13.07,2,.09,3.92,0,5.88,0,1,.33,1.17,1.22,1.16,3.32,0,6.64,0,10,0,.82,0,1.08.18,1.07,1q-.07,7.32,0,14.64c0,.76-.17,1-1,1-3.4,0-6.8,0-10.2,0-.85,0-1.09.24-1.06,1.08.06,2,.06,4,0,6,0,.87.28,1.05,1.09,1,5,0,10.08,0,15.11,0,1,0,1.3.17,1.28,1.22-.06,4.8,0,9.6,0,14.39,0,.84-.22,1.07-1.06,1.07q-17.63,0-35.27,0c-1,0-1.06-.38-1.06-1.19Q300.06,181.64,300,165.69Z" transform="translate(-0.21 -0.22)"/><path class="cls-3" d="M181.4,132.68c6.24,0,12.48,0,18.72,0,.87,0,1.24.12,1.23,1.14q-.07,12.24,0,24.47c0,.88-.18,1.17-1.11,1.14-2.56-.07-5.12,0-7.68,0-1,0-1.26.25-1.26,1.25,0,12.28,0,24.55,0,36.83,0,1-.16,1.35-1.27,1.33q-8.76-.1-17.51,0c-1,0-1.22-.3-1.21-1.26,0-12.28,0-24.55,0-36.83,0-1-.18-1.37-1.29-1.33-2.56.1-5.12,0-7.68,0-.73,0-1-.13-1-1q0-12.42,0-24.83c0-.87.35-.94,1.06-.94C168.76,132.69,175.08,132.68,181.4,132.68Z" transform="translate(-0.21 -0.22)"/><path class="cls-3" d="M207.12,165.63c0-10.6,0-21.19,0-31.79,0-.92.2-1.19,1.16-1.19q8.88.07,17.75,0c.85,0,1,.23,1,1.06q0,32,0,63.93c0,.88-.19,1.13-1.1,1.13q-8.88-.07-17.75,0c-.91,0-1.11-.24-1.1-1.12C207.13,187,207.12,176.31,207.12,165.63Z" transform="translate(-0.21 -0.22)"/><path class="cls-5" d="M69.69,271.24c-4.29,0-7.58-3.1-7.48-7a6.37,6.37,0,0,1,2.17-4.64q2.63-2.45,5.32-4.84a8.08,8.08,0,0,1,10.9.16,6.4,6.4,0,0,1,0,9.32c-1.86,1.81-3.8,3.55-5.75,5.25A7.28,7.28,0,0,1,69.69,271.24Z" transform="translate(-0.21 -0.22)"/><path class="cls-6" d="M304.1,271.23a7.89,7.89,0,0,1-5.86-2.07c-1.65-1.51-3.29-3-5-4.51-2.18-1.94-3-4.34-2.09-7.12,1-2.94,3.3-4.43,6.31-4.79a7.86,7.86,0,0,1,6.57,2.25c1.42,1.34,2.88,2.66,4.34,4,2.66,2.35,3.48,4.95,2.41,7.77A7.26,7.26,0,0,1,304.1,271.23Z" transform="translate(-0.21 -0.22)"/><path class="cls-7" d="M303.47,44.57c4.34,0,7.67,2.93,7.77,6.56a6.48,6.48,0,0,1-2.17,5.12c-1.75,1.63-3.51,3.26-5.31,4.83a8,8,0,0,1-12-1.55,6.22,6.22,0,0,1,.83-7.63c1.93-1.9,4-3.71,6-5.52A7,7,0,0,1,303.47,44.57Z" transform="translate(-0.21 -0.22)"/><path class="cls-8" d="M196.58,10.65c0,1,0,2.08,0,3.12a6.76,6.76,0,0,1-5.51,7c-4,.81-7.5-.64-9.09-4.21a5.49,5.49,0,0,1-.46-2.09c-.07-2.83-.4-5.69.18-8.48.63-3.07,2.79-4.72,5.76-5.39a7.73,7.73,0,0,1,8.6,4.15,5.3,5.3,0,0,1,.52,2.32C196.56,8.25,196.58,9.45,196.58,10.65Z" transform="translate(-0.21 -0.22)"/><path class="cls-9" d="M25.06,162.9a35,35,0,0,1-5.38,0,6.9,6.9,0,0,1-6-7,7.13,7.13,0,0,1,6.94-6.51,83.27,83.27,0,0,1,8.74,0c5.15.29,8.4,5.21,6.35,9.51A7,7,0,0,1,29.37,163c-1.43.08-2.88,0-4.31,0Z" transform="translate(-0.21 -0.22)"/><path class="cls-10" d="M85,90.52a3.53,3.53,0,0,1-3.74-4.08c.37-3.57,4.45-7.43,8-7.6a3.52,3.52,0,0,1,3.82,3.79C93,86.22,88.6,90.49,85,90.52Z" transform="translate(-0.21 -0.22)"/></g></g></svg>